<?xml version="1.0" encoding="utf-8"?>
<svg  fill="none" height="40" viewBox="0 0 174 40" width="174" xmlns="http://www.w3.org/2000/svg">
<path d="M16.043 27.3064C13.8667 26.498 11.6281 26.3737 9.57614 26.9333C8.14596 27.3064 6.77796 28.0526 5.53432 28.9853L4.66376 29.7315L4.41504 29.9802L4.97467 30.4777C5.03685 30.4777 5.03686 30.5399 5.09904 30.602C5.22341 30.7264 5.34778 30.7886 5.53432 30.9129L5.9074 31.1617L6.28049 30.8508C6.34268 30.7886 6.46704 30.6642 6.5914 30.602C7.71068 29.6693 8.95431 29.0475 10.2601 28.7366C11.939 28.3013 13.7423 28.3635 15.5456 29.0475C17.0379 29.6071 20.0849 30.2911 23.7536 28.7366L23.878 28.6744L24.0645 28.4879C24.0645 28.4257 24.1267 28.4257 24.1889 28.3635C24.4998 27.9904 24.8107 27.6173 25.0594 27.182L26.303 25.2544L24.3132 26.3737C21.3907 27.9904 18.7169 28.3013 16.043 27.3064Z" fill="#6b26d9"/>
<path d="M7.52364 20.5906C9.20255 20.1553 11.0058 20.2175 12.8091 20.9015C14.7989 21.6477 19.8978 22.7048 25.6186 17.5437L26.5513 16.611L26.6135 16.5488L26.8622 16.3001L26.7378 15.9891C26.6756 15.7404 26.5513 15.4295 26.4269 15.1186L26.116 14.248L25.4942 14.8699C25.432 14.9942 25.3076 15.0564 25.1833 15.1808C22.4473 17.979 18.2189 20.8393 13.3687 19.0982C11.1924 18.2899 8.95382 18.1655 6.90182 18.7251C4.91201 19.2848 3.17091 20.3419 1.55418 21.8342V21.7721L0.621456 22.767C0.621456 22.8291 0.559286 22.8292 0.497104 22.8913L0.310547 23.0779L0.372732 23.3266C0.434914 23.6375 0.559274 23.9484 0.621456 24.2593L0.994551 25.2542L1.61637 24.4459C1.67855 24.3215 1.80291 24.2593 1.86509 24.135C3.17091 22.9535 4.97419 21.2746 7.52364 20.5906Z" fill="#6b26d9"/>
<path d="M1.49238 19.4715C2.92256 17.9792 4.53928 17.0464 6.28037 16.549C7.95928 16.1137 9.76255 16.1759 11.5658 16.8599C17.1622 18.9119 22.0124 15.5541 24.1266 13.7508L24.9349 12.9424L25.2458 12.6937L24.9971 12.3206C24.8106 12.1341 24.6862 11.8854 24.4997 11.6366L24.1266 11.1392L23.6913 11.5744C23.6291 11.6366 23.5047 11.761 23.4426 11.8232C20.8309 14.3104 16.7891 16.8599 12.1876 15.1188C10.0113 14.3104 7.77273 14.1861 5.72074 14.7457C4.41492 15.1188 3.17128 15.7406 1.92764 16.549L0.621818 17.6061C0.497455 17.7304 0.435273 17.7926 0.310909 17.917L0.186557 18.0413V18.2279C0.124375 18.6632 0.124367 19.0984 0.0621856 19.4715L0 21.0261L1.0571 19.9068C1.18146 19.7824 1.30583 19.5959 1.49238 19.4715Z" fill="#6b26d9"/>

<text x="40" y="25" fill="white" font-size="18" font-family="Arial, sans-serif">mary-ai</text>
</svg>